<?xml version="1.0" encoding="UTF-8"?>
<!DOCTYPE svg PUBLIC "-//W3C//DTD SVG 1.1//EN" "http://www.w3.org/Graphics/SVG/1.1/DTD/svg11.dtd">
<!-- Creator: CorelDRAW 2020 (64 Bit) -->
<svg xmlns="http://www.w3.org/2000/svg" xml:space="preserve" width="221.344mm" height="160.121mm" version="1.1" style="shape-rendering:geometricPrecision; text-rendering:geometricPrecision; image-rendering:optimizeQuality; fill-rule:evenodd; clip-rule:evenodd"
viewBox="0 0 22134.4 16012.14"
 xmlns:xlink="http://www.w3.org/1999/xlink"
 xmlns:xodm="http://www.corel.com/coreldraw/odm/2003"
 aria-hidden="true"
 focusable="false">
 <defs>
  <style type="text/css">
   <![CDATA[
    .fil2 {fill:none}
    .fil9 {fill:#B20503}
    .fil3 {fill:#D91913}
    .fil4 {fill:white}
    .fil1 {fill:#363535;fill-opacity:0.058824}
    .fil5 {fill:#A40804;fill-opacity:0.301961}
    .fil6 {fill:#B00703;fill-opacity:0.301961}
    .fil7 {fill:url(#id3)}
    .fil0 {fill:url(#id4)}
    .fil8 {fill:url(#id5);fill-opacity:0.070588}
   ]]>
  </style>
    <clipPath id="id0">
     <path d="M393.15 2397.14l7050.01 0c2152.68,0 3913.93,1761.26 3913.93,3913.92l0 0.02c0,2152.66 -1761.25,3913.92 -3913.93,3913.92l-2626.05 0 0 -426.58c241.7,120.7 514.3,188.72 802.81,188.72 993.78,0 1799.42,-805.63 1799.42,-1799.41 0,-333.06 -90.59,-644.91 -248.32,-912.44l180.11 0c529.31,0 962.35,-433.05 962.35,-962.34l0 -0.01c0,-529.3 -433.04,-962.34 -962.35,-962.34l-3894.41 0 0 8916.39 -3063.57 0 0 -11869.85z"/>
    </clipPath>
    <clipPath id="id1">
     <path d="M6975.18 8187.73c0,748.48 -606.77,1355.25 -1355.26,1355.25 -748.48,0 -1355.25,-606.77 -1355.25,-1355.25 0,-636.76 988.49,-1933.08 1355.25,-2512.97 366.76,579.89 1355.26,1876.21 1355.26,2512.97z"/>
    </clipPath>
    <clipPath id="id2">
     <path d="M21726.86 10605.47l0 0c0,2013.85 -1647.67,3661.52 -3661.49,3661.52l-7186.34 0 0 -2813.14 7049.77 0c450.96,0 819.92,-368.95 819.92,-819.92l0 0c0,-450.96 -368.96,-819.91 -819.92,-819.91l-2289.45 0 -945.25 0 -567.77 0c-2039.64,0 -3708.42,-1668.78 -3708.42,-3708.44l0 0c0,-2039.67 1668.78,-3708.44 3708.42,-3708.44l6848.69 0 0 2907 -6581.09 0c-450.95,0 -819.92,368.95 -819.92,819.92l0 0c0,450.96 368.97,819.91 819.92,819.91l2771.49 0 899.95 0c2013.82,0 3661.49,1647.66 3661.49,3661.5z"/>
    </clipPath>
  <radialGradient id="id3" gradientUnits="objectBoundingBox" cx="77%" cy="54.9999%" r="32.0001%" fx="77%" fy="54.9999%">
   <stop offset="0" style="stop-opacity:1; stop-color:white"/>
   <stop offset="0.580392" style="stop-opacity:1; stop-color:#EFEFEF"/>
   <stop offset="1" style="stop-opacity:1; stop-color:#E0E0E0"/>
  </radialGradient>
  <radialGradient id="id4" gradientUnits="userSpaceOnUse" gradientTransform="matrix(1.44325 -0 -0 1.5625 -3916 -5021)" xlink:href="#id3" cx="8835.38" cy="8925.55" r="3798.36" fx="8835.38" fy="8925.55">
  </radialGradient>
  <linearGradient id="id5" gradientUnits="userSpaceOnUse" x1="19379" y1="1133.55" x2="18011" y2="9206.06">
   <stop offset="0" style="stop-opacity:1; stop-color:#151416"/>
   <stop offset="1" style="stop-opacity:1; stop-color:#3D3E3D"/>
  </linearGradient>
 </defs>
 <g id="Camada_x0020_1">
  <metadata id="CorelCorpID_0Corel-Layer"/>
  <g id="_2205140897088">
   <path class="fil0" d="M393.15 2397.14l7050.01 0c2152.68,0 3913.93,1761.26 3913.93,3913.92l0 0.02c0,2152.66 -1761.25,3913.92 -3913.93,3913.92l-2626.05 0 0 -426.58c241.7,120.7 514.3,188.72 802.81,188.72 993.78,0 1799.42,-805.63 1799.42,-1799.41 0,-333.06 -90.59,-644.91 -248.32,-912.44l180.11 0c529.31,0 962.35,-433.05 962.35,-962.34l0 -0.01c0,-529.3 -433.04,-962.34 -962.35,-962.34l-3894.41 0 0 8916.39 -3063.57 0 0 -11869.85z"/>
   <g style="clip-path:url(#id0)">
    <g>
     <polygon id="1" class="fil1" points="-267.07,5328.85 393.15,2397.14 3456.72,5350.6 3946.73,5852.74 3456.72,7629.36 "/>
    </g>
   </g>
   <path class="fil2" d="M393.15 2397.14l7050.01 0c2152.68,0 3913.93,1761.26 3913.93,3913.92l0 0.02c0,2152.66 -1761.25,3913.92 -3913.93,3913.92l-2626.05 0 0 -426.58c241.7,120.7 514.3,188.72 802.81,188.72 993.78,0 1799.42,-805.63 1799.42,-1799.41 0,-333.06 -90.59,-644.91 -248.32,-912.44l180.11 0c529.31,0 962.35,-433.05 962.35,-962.34l0 -0.01c0,-529.3 -433.04,-962.34 -962.35,-962.34l-3894.41 0 0 8916.39 -3063.57 0 0 -11869.85z"/>
   <path class="fil3" d="M6975.18 8187.73c0,748.48 -606.77,1355.25 -1355.26,1355.25 -748.48,0 -1355.25,-606.77 -1355.25,-1355.25 0,-636.76 988.49,-1933.08 1355.25,-2512.97 366.76,579.89 1355.26,1876.21 1355.26,2512.97z"/>
   <g style="clip-path:url(#id1)">
    <g>
     <path id="1" class="fil4" d="M5444.38 8991.79c-438.88,-81.99 -718.01,-446.41 -718.01,-898.28 0,-4.76 0.12,-9.5 0.18,-14.24l-232.55 0c-0.1,6.55 -0.24,13.07 -0.24,19.63 0,581.23 371.74,1045.96 950.62,1125.39l0 -232.5z"/>
     <polygon class="fil5" points="7936.96,7945.36 6401.88,10729.35 4551.76,9661.19 5619.92,7811.08 "/>
     <polygon class="fil6" points="3952.03,6327.23 2701.65,8593.03 4551.76,9661.19 5619.92,7811.08 "/>
    </g>
   </g>
   <path class="fil2" d="M6975.18 8187.73c0,748.48 -606.77,1355.25 -1355.26,1355.25 -748.48,0 -1355.25,-606.77 -1355.25,-1355.25 0,-636.76 988.49,-1933.08 1355.25,-2512.97 366.76,579.89 1355.26,1876.21 1355.26,2512.97z"/>
   <path class="fil7" d="M21726.86 10605.47l0 0c0,2013.85 -1647.67,3661.52 -3661.49,3661.52l-7186.34 0 0 -2813.14 7049.77 0c450.96,0 819.92,-368.95 819.92,-819.92l0 0c0,-450.96 -368.96,-819.91 -819.92,-819.91l-2289.45 0 -945.25 0 -567.77 0c-2039.64,0 -3708.42,-1668.78 -3708.42,-3708.44l0 0c0,-2039.67 1668.78,-3708.44 3708.42,-3708.44l6848.69 0 0 2907 -6581.09 0c-450.95,0 -819.92,368.95 -819.92,819.92l0 0c0,450.96 368.97,819.91 819.92,819.91l2771.49 0 899.95 0c2013.82,0 3661.49,1647.66 3661.49,3661.5z"/>
   <g style="clip-path:url(#id2)">
    <g>
     <polygon id="1" class="fil8" points="10016.84,1308.54 21264.13,1286.8 27373.16,4725.14 17624.45,9052.81 10540.72,3449.59 "/>
    </g>
   </g>
   <path class="fil2" d="M21726.86 10605.47l0 0c0,2013.85 -1647.67,3661.52 -3661.49,3661.52l-7186.34 0 0 -2813.14 7049.77 0c450.96,0 819.92,-368.95 819.92,-819.92l0 0c0,-450.96 -368.96,-819.91 -819.92,-819.91l-2289.45 0 -945.25 0 -567.77 0c-2039.64,0 -3708.42,-1668.78 -3708.42,-3708.44l0 0c0,-2039.67 1668.78,-3708.44 3708.42,-3708.44l6848.69 0 0 2907 -6581.09 0c-450.95,0 -819.92,368.95 -819.92,819.92l0 0c0,450.96 368.97,819.91 819.92,819.91l2771.49 0 899.95 0c2013.82,0 3661.49,1647.66 3661.49,3661.5z"/>
   <path class="fil4" d="M20653.82 2260.75l0 66.85c0,32.93 26.92,59.85 59.85,59.85l0 0c32.93,0 59.85,-26.92 59.85,-59.85l0 -66.85 0 -91.04 0 -102.89c0,-92.38 75.58,-167.97 167.98,-167.97l0.01 0c92.39,0 167.97,75.59 167.97,167.97l0 4003.5 119.7 0 0 -4030.69c0,-158.23 -129.45,-287.68 -287.67,-287.68l0 0c-158.22,0 -287.69,129.45 -287.69,287.68l0 130.08 0 91.04z"/>
   <circle class="fil9" cx="21169.34" cy="6363.46" r="182.23"/>
  </g>
 </g>
</svg>
