<?xml version="1.0" encoding="UTF-8"?>
<!DOCTYPE svg PUBLIC "-//W3C//DTD SVG 1.1//EN" "http://www.w3.org/Graphics/SVG/1.1/DTD/svg11.dtd">
<!-- Creator: CorelDRAW 2020 (64 Bit) -->
<svg xmlns="http://www.w3.org/2000/svg" xml:space="preserve" width="33.937mm" height="26.449mm" version="1.1" style="shape-rendering:geometricPrecision; text-rendering:geometricPrecision; image-rendering:optimizeQuality; fill-rule:evenodd; clip-rule:evenodd"
viewBox="0 0 3393.7 2644.9"
 xmlns:xlink="http://www.w3.org/1999/xlink"
 xmlns:xodm="http://www.corel.com/coreldraw/odm/2003">
 <defs>
  <style type="text/css">
   <![CDATA[
    .fil3 {fill:none}
    .fil1 {fill:#CCCCCC}
    .fil0 {fill:white}
    .fil2 {fill:#363535;fill-opacity:0.090196}
    .fil4 {fill:#666666;fill-opacity:0.160784}
    .fil5 {fill:#E6E6E6;fill-opacity:0.509804}
    .fil6 {fill:url(#id6)}
    .fil8 {fill:url(#id7);fill-opacity:0.149020}
    .fil7 {fill:url(#id8);fill-opacity:0.219608}
    .fil10 {fill:url(#id9);fill-opacity:0.239216}
    .fil9 {fill:url(#id10);fill-opacity:0.278431}
   ]]>
  </style>
    <clipPath id="id0">
     <path d="M906.64 717.24l678.11 0c207.06,0 376.47,169.41 376.47,376.46l0 0.01c0,207.05 -169.41,376.46 -376.47,376.46l-252.59 0 0 -41.03c23.25,11.61 49.47,18.15 77.22,18.15 95.59,0 173.08,-77.49 173.08,-173.08 0,-32.03 -8.71,-62.03 -23.88,-87.76l17.32 0c50.91,0 92.56,-41.65 92.56,-92.56l0 -0.01c0,-50.91 -41.65,-92.56 -92.56,-92.56l-374.59 0 0 857.63 -294.67 0 0 -1141.71z"/>
    </clipPath>
    <clipPath id="id1">
     <path d="M1539.74 1274.21c0,72 -58.36,130.36 -130.36,130.36 -71.99,0 -130.35,-58.36 -130.35,-130.36 0,-61.25 95.08,-185.93 130.35,-241.71 35.28,55.78 130.36,180.46 130.36,241.71z"/>
    </clipPath>
    <clipPath id="id2">
     <path d="M2958.64 1506.76l0 0c0,193.71 -158.48,352.19 -352.18,352.19l-691.23 0 0 -270.58 678.09 0c43.38,0 78.86,-35.49 78.86,-78.87l0 0c0,-43.37 -35.48,-78.86 -78.86,-78.86l-220.21 0 -90.92 0 -54.61 0c-196.19,0 -356.7,-160.51 -356.7,-356.7l0 0c0,-196.19 160.51,-356.7 356.7,-356.7l658.74 0 0 279.61 -633 0c-43.38,0 -78.87,35.49 -78.87,78.87l0 0c0,43.37 35.49,78.86 78.87,78.86l266.57 0 86.57 0c193.7,0 352.18,158.48 352.18,352.18z"/>
    </clipPath>
    <clipPath id="id3">
     <path d="M1711.79 2406.83c-496.43,-212.93 -974.76,-380.9 -1435,-503.89 482.69,37.63 961.02,139.14 1435,304.52 550.18,-180.47 1024.87,-277.6 1424.06,-291.38 -547.09,145.99 -1021.77,309.57 -1424.06,490.75z"/>
    </clipPath>
    <clipPath id="id4">
     <path d="M1724.94 2104.49c185.49,-51.11 278.24,-76.68 278.24,-76.68 -383.79,-133.75 -994.31,-189.25 -1831.55,-166.5 647.87,39.57 1165.64,120.63 1553.31,243.18z"/>
    </clipPath>
    <clipPath id="id5">
     <path d="M2098.48 2012.31c-218.08,-71.07 -452.13,-122.19 -702.17,-153.36 1245.86,0 1868.8,0 1868.8,0 -443.99,36.85 -832.87,87.97 -1166.63,153.36z"/>
    </clipPath>
  <linearGradient id="id6" gradientUnits="userSpaceOnUse" x1="4215.6" y1="551.52" x2="4084.02" y2="1327.97">
   <stop offset="0" style="stop-opacity:1; stop-color:#DFDDE0"/>
   <stop offset="1" style="stop-opacity:1; stop-color:white"/>
  </linearGradient>
  <linearGradient id="id7" gradientUnits="userSpaceOnUse" x1="-921.92" y1="2689.34" x2="548.14" y2="2689.34">
   <stop offset="0" style="stop-opacity:1; stop-color:#060804"/>
   <stop offset="0.690196" style="stop-opacity:1; stop-color:#2B2C2A"/>
   <stop offset="1" style="stop-opacity:1; stop-color:#464646"/>
  </linearGradient>
  <linearGradient id="id8" gradientUnits="userSpaceOnUse" x1="3410.64" y1="2576.41" x2="4880.69" y2="2576.41">
   <stop offset="0" style="stop-opacity:1; stop-color:#060804"/>
   <stop offset="0.439216" style="stop-opacity:1; stop-color:#2B2C2A"/>
   <stop offset="1" style="stop-opacity:1; stop-color:#464646"/>
  </linearGradient>
  <linearGradient id="id9" gradientUnits="userSpaceOnUse" x1="4186.65" y1="2601.38" x2="6131.66" y2="2601.38">
   <stop offset="0" style="stop-opacity:1; stop-color:#060804"/>
   <stop offset="0.580392" style="stop-opacity:1; stop-color:#2B2C2A"/>
   <stop offset="1" style="stop-opacity:1; stop-color:#464646"/>
  </linearGradient>
  <linearGradient id="id10" gradientUnits="userSpaceOnUse" x1="-420.98" y1="2870.68" x2="1470.73" y2="2870.68">
   <stop offset="0" style="stop-opacity:1; stop-color:#060804"/>
   <stop offset="0.470588" style="stop-opacity:1; stop-color:#0D0F0C"/>
   <stop offset="0.690196" style="stop-opacity:1; stop-color:#2B2C2A"/>
   <stop offset="1" style="stop-opacity:1; stop-color:#464646"/>
  </linearGradient>
 </defs>
 <g id="Camada_x0020_1">
  <metadata id="CorelCorpID_0Corel-Layer"/>
  <g id="_2202088041808">
   <path class="fil0" d="M906.64 800.73l-90.95 0.41 -379.92 951.69 32.3 56.51 438.57 -382.38 0 -52.8 -233.27 0 233.27 -212.69 0 -71.91 -135.06 0 91.61 -230 43.45 0 0 -58.83zm-223.85 500.65l64.97 -166 117.6 0 -182.57 166zm-176.07 416.97l126.37 -305.37 218.31 0 -344.68 305.37z"/>
   <path class="fil0" d="M497.22 1823.73l307.45 0c4.12,-53.58 47.86,-96.05 101.97,-98.19l0 133.41 -409.42 0 0 -35.22z"/>
   <path class="fil0" d="M263.78 1650.99c144.25,0 261.19,116.94 261.19,261.19 0,144.25 -116.94,261.19 -261.19,261.19 -144.25,0 -261.18,-116.94 -261.18,-261.19 0,-144.25 116.93,-261.19 261.18,-261.19z"/>
   <path class="fil1" d="M263.78 1762.74c82.54,0 149.44,66.9 149.44,149.44 0,82.53 -66.9,149.44 -149.44,149.44 -82.53,0 -149.43,-66.91 -149.43,-149.44 0,-82.54 66.9,-149.44 149.43,-149.44z"/>
   <path class="fil0" d="M906.64 717.24l678.11 0c207.06,0 376.47,169.41 376.47,376.46l0 0.01c0,207.05 -169.41,376.46 -376.47,376.46l-252.59 0 0 -41.03c23.25,11.61 49.47,18.15 77.22,18.15 95.59,0 173.08,-77.49 173.08,-173.08 0,-32.03 -8.71,-62.03 -23.88,-87.76l17.32 0c50.91,0 92.56,-41.65 92.56,-92.56l0 -0.01c0,-50.91 -41.65,-92.56 -92.56,-92.56l-374.59 0 0 857.63 -294.67 0 0 -1141.71z"/>
   <g style="clip-path:url(#id0)">
    <g>
     <polygon id="1" class="fil2" points="-153.44,399.13 -89.93,117.14 204.74,401.23 251.86,449.52 204.74,620.39 "/>
    </g>
   </g>
   <path class="fil3" d="M906.64 717.24l678.11 0c207.06,0 376.47,169.41 376.47,376.46l0 0.01c0,207.05 -169.41,376.46 -376.47,376.46l-252.59 0 0 -41.03c23.25,11.61 49.47,18.15 77.22,18.15 95.59,0 173.08,-77.49 173.08,-173.08 0,-32.03 -8.71,-62.03 -23.88,-87.76l17.32 0c50.91,0 92.56,-41.65 92.56,-92.56l0 -0.01c0,-50.91 -41.65,-92.56 -92.56,-92.56l-374.59 0 0 857.63 -294.67 0 0 -1141.71z"/>
   <path class="fil0" d="M1539.74 1274.21c0,72 -58.36,130.36 -130.36,130.36 -71.99,0 -130.35,-58.36 -130.35,-130.36 0,-61.25 95.08,-185.93 130.35,-241.71 35.28,55.78 130.36,180.46 130.36,241.71z"/>
   <g style="clip-path:url(#id1)">
    <g>
     <polygon id="1" class="fil4" points="1094.99,1205.86 947.33,1473.64 769.38,1370.9 872.13,1192.95 "/>
     <polygon class="fil5" points="711.69,1050.23 591.42,1268.16 769.38,1370.9 872.13,1192.95 "/>
     <path class="fil0" d="M855.24 1306.51c-42.21,-7.88 -69.06,-42.94 -69.06,-86.4 0,-0.46 0.01,-0.91 0.01,-1.37l-22.36 0c-0.01,0.63 -0.03,1.26 -0.03,1.89 0,55.91 35.76,100.61 91.44,108.25l0 -22.37z"/>
    </g>
   </g>
   <path class="fil3" d="M1539.74 1274.21c0,72 -58.36,130.36 -130.36,130.36 -71.99,0 -130.35,-58.36 -130.35,-130.36 0,-61.25 95.08,-185.93 130.35,-241.71 35.28,55.78 130.36,180.46 130.36,241.71z"/>
   <path class="fil0" d="M2958.64 1506.76l0 0c0,193.71 -158.48,352.19 -352.18,352.19l-691.23 0 0 -270.58 678.09 0c43.38,0 78.86,-35.49 78.86,-78.87l0 0c0,-43.37 -35.48,-78.86 -78.86,-78.86l-220.21 0 -90.92 0 -54.61 0c-196.19,0 -356.7,-160.51 -356.7,-356.7l0 0c0,-196.19 160.51,-356.7 356.7,-356.7l658.74 0 0 279.61 -633 0c-43.38,0 -78.87,35.49 -78.87,78.87l0 0c0,43.37 35.49,78.86 78.87,78.86l266.57 0 86.57 0c193.7,0 352.18,158.48 352.18,352.18z"/>
   <g style="clip-path:url(#id2)">
    <g>
     <polygon id="1" class="fil6" points="3315.1,568.34 4396.92,566.25 4984.53,896.97 4046.84,1313.23 3365.49,774.28 "/>
    </g>
   </g>
   <path class="fil3" d="M2958.64 1506.76l0 0c0,193.71 -158.48,352.19 -352.18,352.19l-691.23 0 0 -270.58 678.09 0c43.38,0 78.86,-35.49 78.86,-78.87l0 0c0,-43.37 -35.48,-78.86 -78.86,-78.86l-220.21 0 -90.92 0 -54.61 0c-196.19,0 -356.7,-160.51 -356.7,-356.7l0 0c0,-196.19 160.51,-356.7 356.7,-356.7l658.74 0 0 279.61 -633 0c-43.38,0 -78.87,35.49 -78.87,78.87l0 0c0,43.37 35.49,78.86 78.87,78.86l266.57 0 86.57 0c193.7,0 352.18,158.48 352.18,352.18z"/>
   <path class="fil0" d="M1711.79 2406.83c-496.43,-212.93 -974.76,-380.9 -1435,-503.89 482.69,37.63 961.02,139.14 1435,304.52 550.18,-180.47 1024.87,-277.6 1424.06,-291.38 -547.09,145.99 -1021.77,309.57 -1424.06,490.75z"/>
   <g style="clip-path:url(#id3)">
    <g>
     <polygon id="1" class="fil7" points="3410.64,2237.02 4880.69,2237.02 4880.69,2915.8 3410.64,2915.8 "/>
     <polygon class="fil8" points="-921.92,2349.95 548.14,2349.95 548.14,3028.73 -921.92,3028.73 "/>
    </g>
   </g>
   <path class="fil3" d="M1711.79 2406.83c-496.43,-212.93 -974.76,-380.9 -1435,-503.89 482.69,37.63 961.02,139.14 1435,304.52 550.18,-180.47 1024.87,-277.6 1424.06,-291.38 -547.09,145.99 -1021.77,309.57 -1424.06,490.75z"/>
   <path class="fil0" d="M1724.94 2104.49c185.49,-51.11 278.24,-76.68 278.24,-76.68 -383.79,-133.75 -994.31,-189.25 -1831.55,-166.5 647.87,39.57 1165.64,120.63 1553.31,243.18z"/>
   <g style="clip-path:url(#id4)">
    <g>
     <polygon id="1" class="fil9" points="-420.98,2490.65 1470.73,2490.65 1470.73,3250.71 -420.98,3250.71 "/>
    </g>
   </g>
   <path class="fil3" d="M1724.94 2104.49c185.49,-51.11 278.24,-76.68 278.24,-76.68 -383.79,-133.75 -994.31,-189.25 -1831.55,-166.5 647.87,39.57 1165.64,120.63 1553.31,243.18z"/>
   <path class="fil0" d="M2098.48 2012.31c-218.08,-71.07 -452.13,-122.19 -702.17,-153.36 1245.86,0 1868.8,0 1868.8,0 -443.99,36.85 -832.87,87.97 -1166.63,153.36z"/>
   <g style="clip-path:url(#id5)">
    <g>
     <polygon id="1" class="fil10" points="4186.65,2221.35 6131.66,2221.35 6131.66,2981.41 4186.65,2981.41 "/>
    </g>
   </g>
   <path class="fil3" d="M2098.48 2012.31c-218.08,-71.07 -452.13,-122.19 -702.17,-153.36 1245.86,0 1868.8,0 1868.8,0 -443.99,36.85 -832.87,87.97 -1166.63,153.36z"/>
   <path class="fil0" d="M654.14 613.61c13.8,21.37 26.03,41.46 36.7,60.25 1064.71,-598.56 2417.9,-243.79 2690.36,1043.39 -36.72,-517.03 -309.11,-927.45 -817.18,-1231.26 -646.56,-311.34 -1305.27,-231.37 -1909.88,127.62z"/>
   <path class="fil0" d="M889.13 473.72l0 6.43c0,3.17 -2.59,5.76 -5.76,5.76l0 0c-3.17,0 -5.76,-2.59 -5.76,-5.76l0 -6.43 0 -8.75 0 -9.9c0,-8.88 -7.27,-16.16 -16.15,-16.16l0 0c-8.89,0 -16.16,7.28 -16.16,16.16l0 385.08 -11.51 0 0 -387.69c0,-15.22 12.45,-27.68 27.67,-27.68l0 0c15.22,0 27.67,12.46 27.67,27.68l0 12.51 0 8.75z"/>
   <circle class="fil1" cx="839.54" cy="868.35" r="17.53"/>
   <path class="fil0" d="M1154.78 372.94l0 6.44c0,3.16 -2.59,5.75 -5.76,5.75l0 0c-3.16,0 -5.75,-2.59 -5.75,-5.75l0 -6.44 0 -8.75 0 -9.9c0,-8.88 -7.27,-16.15 -16.16,-16.15l0 0c-8.89,0 -16.16,7.27 -16.16,16.15l0 385.08 -11.51 0 0 -387.69c0,-15.22 12.45,-27.67 27.67,-27.67l0 0c15.22,0 27.67,12.45 27.67,27.67l0 12.51 0 8.75z"/>
   <circle class="fil1" cx="1105.19" cy="767.57" r="17.53"/>
   <path class="fil0" d="M1430.83 300.65l0 6.43c0,3.16 -2.59,5.75 -5.76,5.75l0 0c-3.17,0 -5.76,-2.59 -5.76,-5.75l0 -6.43 0 -8.76 0 -9.9c0,-8.88 -7.27,-16.15 -16.15,-16.15l0 0c-8.89,0 -16.16,7.27 -16.16,16.15l0 385.08 -11.51 0 0 -387.69c0,-15.22 12.45,-27.67 27.67,-27.67l0 0c15.21,0 27.67,12.45 27.67,27.67l0 12.51 0 8.76z"/>
   <circle class="fil0" cx="1381.24" cy="695.27" r="17.53"/>
  </g>
 </g>
</svg>
